<svg id="Capa_1" enable-background="new 0 0 512.002 512.002" height="512" viewBox="0 0 512.002 512.002" width="512" xmlns="http://www.w3.org/2000/svg"><g><path d="m451.848 367.724h-161.114c-5.522 0-9.998 4.475-10 9.997h-254.538c-5.523 0-10 4.477-10 10 0 27.459 16.669 50.162 48.205 65.653 23.767 11.675 55.946 18.645 86.079 18.645h67.781c19.504 0 35.918-13.485 40.407-31.621h22.066v5.238c0 5.523 4.477 10 10 10h161.113c24.237 0 43.956-19.719 43.956-43.956.001-24.238-19.718-43.956-43.955-43.956zm-201.965 52.672c-5.523 0-10 4.477-10 10 0 11.922-9.699 21.621-21.622 21.621h-67.781c-43.727 0-103.904-16.939-113.089-54.297h243.343v22.676zm201.965 15.239h-151.114v-47.911h151.113c13.209 0 23.956 10.747 23.956 23.956s-10.746 23.955-23.955 23.955z"/><path d="m499.276 160.631c-8.842-9.414-21.317-14.813-34.228-14.813-7.376 0-14.73 1.758-21.269 5.085-3.561 1.812-11.68 4.074-19.472 5.941v-84.02c0-18.108-14.732-32.84-32.84-32.84h-358.627c-18.108 0-32.84 14.732-32.84 32.84v239.892c0 18.108 14.732 32.84 32.84 32.84h358.626c18.108 0 32.84-14.732 32.84-32.84v-84.148c7.679 1.772 15.415 3.908 18.605 5.616 6.798 3.64 14.415 5.537 22.161 5.537.755 0 1.511-.018 2.268-.054 23.517-1.125 43.092-20.404 44.564-43.89.824-13.117-3.661-25.599-12.628-35.146zm-94.969 152.085c0 7.08-5.76 12.84-12.84 12.84h-358.627c-7.08 0-12.84-5.76-12.84-12.84v-239.892c0-7.08 5.76-12.84 12.84-12.84h358.626c7.08 0 12.84 5.76 12.84 12.84v239.892zm87.638-118.191c0 .001 0 .001 0 0-.844 13.466-12.071 24.519-25.559 25.164-4.913.238-9.76-.85-14.033-3.137-6.565-3.515-19.36-6.636-28.046-8.484v-30.693c8.66-1.944 21.87-5.251 28.542-8.646 3.795-1.931 7.9-2.91 12.199-2.91 7.52 0 14.499 3.021 19.65 8.505 5.147 5.479 7.72 12.653 7.247 20.201z"/><path d="m270.917 90.464h-99.466c-49.161 0-89.156 39.995-89.156 89.155v26.303c0 49.16 39.995 89.155 89.156 89.155 19.36 0 37.787-6.125 53.288-17.713 12.971-9.697 23.187-22.951 29.294-37.855h16.884c41.092 0 74.522-33.43 74.522-74.521s-33.43-74.524-74.522-74.524zm0 129.043h-23.898c-4.373 0-8.239 2.841-9.544 7.015-9.083 29.042-35.616 48.554-66.024 48.554-38.133 0-69.156-31.023-69.156-69.155v-26.303c0-38.132 31.023-69.155 69.156-69.155h99.466c30.064 0 54.522 24.459 54.522 54.522s-24.458 54.522-54.522 54.522z"/><path d="m166.523 172.343c-21.84 0-39.608 17.768-39.608 39.608s17.768 39.608 39.608 39.608 39.608-17.768 39.608-39.608-17.768-39.608-39.608-39.608zm0 59.215c-10.812 0-19.608-8.796-19.608-19.608s8.796-19.608 19.608-19.608 19.608 8.796 19.608 19.608-8.796 19.608-19.608 19.608z"/></g></svg>