<svg xmlns="http://www.w3.org/2000/svg" xmlns:xlink="http://www.w3.org/1999/xlink" viewBox="0 0 617.07 148.5"><defs><style>.cls-1{fill:url(#linear-gradient);}.cls-2{fill:url(#linear-gradient-2);}.cls-3{fill:#121212;}</style><linearGradient id="linear-gradient" x1="1.18" y1="-4.35" x2="40.35" y2="57.02" gradientUnits="userSpaceOnUse"><stop offset="0" stop-color="#76e5ff"/><stop offset="1" stop-color="#45d8ff"/></linearGradient><linearGradient id="linear-gradient-2" x1="15.62" y1="38.91" x2="42.02" y2="80.26" gradientTransform="translate(15.02 57.29) rotate(6.68)" xlink:href="#linear-gradient"/></defs><title>Asset 1</title><g id="Layer_2" data-name="Layer 2"><g id="Layer_1-2" data-name="Layer 1"><path class="cls-1" d="M35.3,0V0H4.83A3.46,3.46,0,0,0,1.37,3.5V79.7a3.46,3.46,0,0,0,3.46,3.46H35.3v-.1A41.53,41.53,0,0,0,35.3,0Z"/><path class="cls-2" d="M.78,142.85,43.71,89.54A3.47,3.47,0,0,1,48.59,89l36.27,29.22a3.46,3.46,0,0,1-1.16,6L4.49,148.34A3.47,3.47,0,0,1,.78,142.85Z"/><path class="cls-3" d="M172.78,101.75,158.23,75.33a1.42,1.42,0,0,0-1.23-.72h-2.08a1.4,1.4,0,0,0-1.4,1.4v25.06a1.4,1.4,0,0,1-1.4,1.4H136.94a1.4,1.4,0,0,1-1.4-1.4v-71a1.4,1.4,0,0,1,1.4-1.4h28.77a33.26,33.26,0,0,1,14.88,3,21,21,0,0,1,9.2,8.36,23.34,23.34,0,0,1,3.05,11.82A21.94,21.94,0,0,1,188.68,65,21.57,21.57,0,0,1,178,72.72a1.39,1.39,0,0,0-.74,2l14.94,25.64a1.4,1.4,0,0,1-1.21,2.1H174A1.39,1.39,0,0,1,172.78,101.75ZM153.52,60.49a1.4,1.4,0,0,0,1.4,1.4h9.74c3.29,0,5.77-.8,7.41-2.42a9.11,9.11,0,0,0,2.47-6.83A8.82,8.82,0,0,0,172.07,46c-1.64-1.62-4.12-2.42-7.41-2.42h-9.74a1.39,1.39,0,0,0-1.4,1.4Z"/><path class="cls-3" d="M257.81,77.45H220a1.39,1.39,0,0,0-1.39,1.6,11.48,11.48,0,0,0,3.33,6.76,10.76,10.76,0,0,0,7.63,2.89q6.3,0,9-5a1.37,1.37,0,0,1,1.2-.69h16.41a1.4,1.4,0,0,1,1.33,1.83,26.38,26.38,0,0,1-14.39,15.83,30.81,30.81,0,0,1-12.93,2.63,31.37,31.37,0,0,1-15.35-3.68,26.15,26.15,0,0,1-10.52-10.51,32.49,32.49,0,0,1-3.78-16,32.81,32.81,0,0,1,3.73-16A25.82,25.82,0,0,1,214.7,46.65a34.1,34.1,0,0,1,30.6-.11,25.66,25.66,0,0,1,10.35,10.2,30.92,30.92,0,0,1,3.73,15.45c0,1.29-.06,2.63-.18,4A1.4,1.4,0,0,1,257.81,77.45Zm-18.31-10a1.4,1.4,0,0,0,1.38-1.61,8.92,8.92,0,0,0-3-5.75A11.61,11.61,0,0,0,230,57.37,11.41,11.41,0,0,0,222.32,60a10.94,10.94,0,0,0-3.46,5.68,1.4,1.4,0,0,0,1.35,1.78Z"/><path class="cls-3" d="M279,100.68a23.32,23.32,0,0,1-9.46-7.2,19,19,0,0,1-3.71-8.65,1.4,1.4,0,0,1,1.39-1.6h15a1.42,1.42,0,0,1,1.36,1.09,6.81,6.81,0,0,0,2.65,3.85,10,10,0,0,0,6.2,1.89,8.8,8.8,0,0,0,5.2-1.31,4,4,0,0,0,1.84-3.42,4,4,0,0,0-2.63-3.73,53.6,53.6,0,0,0-8.51-2.68,79.44,79.44,0,0,1-10.52-3.1,18.17,18.17,0,0,1-7.25-5.15q-3-3.53-3.05-9.52A16.1,16.1,0,0,1,270.37,52a18.77,18.77,0,0,1,8.2-6.58A31.43,31.43,0,0,1,291.45,43q11,0,17.4,5.46a20.91,20.91,0,0,1,7.08,12.88,1.4,1.4,0,0,1-1.38,1.63H300.68a1.41,1.41,0,0,1-1.35-1,6.9,6.9,0,0,0-2.47-3.78,9.26,9.26,0,0,0-5.94-1.79,8.22,8.22,0,0,0-4.84,1.21,3.85,3.85,0,0,0-1.68,3.31,4,4,0,0,0,2.68,3.78,43.05,43.05,0,0,0,8.36,2.53,90.06,90.06,0,0,1,10.62,3.31,18.45,18.45,0,0,1,7.2,5.25q3.11,3.63,3.21,9.73a15.5,15.5,0,0,1-2.89,9.2,19.12,19.12,0,0,1-8.31,6.36,31.8,31.8,0,0,1-12.56,2.31A33.61,33.61,0,0,1,279,100.68Z"/><path class="cls-3" d="M381.23,77.45H343.38a1.4,1.4,0,0,0-1.39,1.6,11.43,11.43,0,0,0,3.34,6.76A10.72,10.72,0,0,0,353,88.7q6.3,0,9-5a1.37,1.37,0,0,1,1.2-.69h16.41a1.4,1.4,0,0,1,1.33,1.83,26.29,26.29,0,0,1-4.77,8.58,26.65,26.65,0,0,1-9.62,7.25,30.81,30.81,0,0,1-12.93,2.63,31.37,31.37,0,0,1-15.35-3.68,26.07,26.07,0,0,1-10.51-10.51,32.39,32.39,0,0,1-3.79-16,32.92,32.92,0,0,1,3.73-16,25.82,25.82,0,0,1,10.46-10.51,34.1,34.1,0,0,1,30.6-.11,25.66,25.66,0,0,1,10.35,10.2,30.92,30.92,0,0,1,3.73,15.45c0,1.29-.06,2.63-.18,4A1.4,1.4,0,0,1,381.23,77.45Zm-18.31-10a1.4,1.4,0,0,0,1.38-1.61,8.92,8.92,0,0,0-3.05-5.75,11.61,11.61,0,0,0-7.88-2.73A11.37,11.37,0,0,0,345.75,60a11,11,0,0,0-3.47,5.68,1.4,1.4,0,0,0,1.35,1.78Z"/><path class="cls-3" d="M418.13,46a20.11,20.11,0,0,1,9-2.74,1.4,1.4,0,0,1,1.48,1.4V60.81a1.4,1.4,0,0,1-1.4,1.4H423.7q-6.74,0-10.09,2.89t-3.37,10.14v25.83a1.4,1.4,0,0,1-1.39,1.4H393.66a1.4,1.4,0,0,1-1.39-1.4V45.21a1.39,1.39,0,0,1,1.39-1.4h15.19a1.39,1.39,0,0,1,1.39,1.4v4.28a1.4,1.4,0,0,0,2.44.93A22.9,22.9,0,0,1,418.13,46Z"/><path class="cls-3" d="M465,81.25,476.07,44.8a1.4,1.4,0,0,1,1.34-1h16.11a1.39,1.39,0,0,1,1.32,1.86L475,101.54a1.4,1.4,0,0,1-1.32.93H453.49a1.38,1.38,0,0,1-1.31-.93L432.35,45.67a1.39,1.39,0,0,1,1.32-1.86h16.22a1.4,1.4,0,0,1,1.34,1l11.08,36.45A1.4,1.4,0,0,0,465,81.25Z"/><path class="cls-3" d="M596.26,96.61a1.34,1.34,0,0,1-.14-.38q-1.47-6.41,2.61-10.19a12,12,0,0,1,15.35,0q4.09,3.81,2.59,10.27a2.26,2.26,0,0,1-.15.39,11.51,11.51,0,0,1-20.26-.09Zm-75.21-51.4v55.86a1.4,1.4,0,0,1-1.4,1.4H504.47a1.4,1.4,0,0,1-1.4-1.4V45.21a1.4,1.4,0,0,1,1.4-1.4h15.18A1.4,1.4,0,0,1,521.05,45.21Z"/><path class="cls-3" d="M545.28,99.63a26.91,26.91,0,0,1-10.83-10.51,31.4,31.4,0,0,1-3.94-16,31.1,31.1,0,0,1,4-15.93,27,27,0,0,1,10.93-10.56,34.74,34.74,0,0,1,31.12,0,27.08,27.08,0,0,1,10.93,10.56,31.2,31.2,0,0,1,4,15.93,30.83,30.83,0,0,1-4,15.93,27.36,27.36,0,0,1-11,10.56,32.93,32.93,0,0,1-15.61,3.68A32.3,32.3,0,0,1,545.28,99.63ZM569.57,84q3.61-3.8,3.62-10.83t-3.52-10.83a12,12,0,0,0-17.4-.05Q548.81,66,548.8,73.14T552.22,84a11.06,11.06,0,0,0,8.57,3.78A11.73,11.73,0,0,0,569.57,84Z"/></g></g></svg>