<svg xmlns="http://www.w3.org/2000/svg" viewBox="0 0 500 500"><g id="freepik--background-complete--inject-200"><path d="M75.21,274.61l-13.13.28-6.66.11c-2.22.05-4.46,0-6.69.06h-.45v-.45l-.05-11.19v-.5h.5L62,263c4.41,0,8.82.12,13.24.17h.27v.27c0,1.9-.09,3.79-.13,5.65Zm0,0L75.07,269c0-1.87-.12-3.71-.14-5.54l.28.27c-4.42.05-8.83.16-13.24.17l-13.24.06.5-.5-.06,11.19-.44-.45c2.18,0,4.35,0,6.54.06l6.58.11Z" style="fill:#ebebeb"></path><path d="M60.44,288.72,47.31,289l-6.66.11c-2.23.05-4.46,0-6.69.06h-.45v-.45l0-11.19V277H34l13.24.06c4.41,0,8.82.12,13.24.17h.27v.27c0,1.9-.09,3.79-.13,5.65Zm0,0-.15-5.65c0-1.87-.11-3.71-.13-5.54l.28.27c-4.42.05-8.83.16-13.24.17L34,278l.49-.5-.05,11.19-.44-.45c2.18,0,4.35,0,6.54.06l6.58.11Z" style="fill:#ebebeb"></path><path d="M90,288.72,76.85,289l-6.66.11c-2.22.05-4.46,0-6.69.06h-.44v-.45l0-11.19V277h.5l13.24.06c4.41,0,8.83.12,13.24.17h.27v.27c0,1.9-.08,3.79-.13,5.65Zm0,0-.14-5.65c0-1.87-.12-3.71-.13-5.54l.27.27c-4.41.05-8.83.16-13.24.17L63.5,278l.5-.5-.06,11.19-.44-.45c2.18,0,4.36,0,6.54.06l6.58.11Z" style="fill:#ebebeb"></path><path d="M451.27,288.72l-13.12.28-6.66.11c-2.23.05-4.47,0-6.7.06h-.44v-.45l-.06-11.19V277h.5l13.24.06c4.42,0,8.83.12,13.24.17h.28v.27c0,1.9-.09,3.79-.13,5.65Zm0,0-.14-5.65c0-1.87-.11-3.71-.13-5.54l.27.27c-4.41.05-8.82.16-13.24.17l-13.24.06.5-.5-.05,11.19-.45-.45c2.18,0,4.36,0,6.55.06l6.58.11Z" style="fill:#ebebeb"></path><path d="M451.27,56.19l-13.12.27-6.66.12c-2.23,0-4.47,0-6.7.05h-.44v-.45L424.29,45v-.51h.5l13.24.06c4.42,0,8.83.11,13.24.16h.28V45c0,1.9-.09,3.78-.13,5.65Zm0,0-.14-5.66c0-1.86-.11-3.7-.13-5.53l.27.27c-4.41,0-8.82.16-13.24.16l-13.24.07.5-.5-.05,11.19-.45-.45c2.18,0,4.36,0,6.55.06l6.58.11Z" style="fill:#ebebeb"></path><path d="M466,70.3l-13.12.27-6.66.12c-2.23,0-4.46,0-6.7,0h-.44V70.3l-.06-11.19V58.6h.5l13.24.06c4.42,0,8.83.11,13.24.16h.28v.27c0,1.89-.09,3.78-.13,5.65Zm0,0-.14-5.66c0-1.86-.11-3.7-.13-5.53l.27.27c-4.41,0-8.82.16-13.24.16l-13.24.07.5-.5L440,70.3l-.45-.45c2.19,0,4.36,0,6.55.06l6.58.11Z" style="fill:#ebebeb"></path><path d="M60.44,56.2l-13.13.28-6.66.11c-2.23,0-4.46,0-6.69,0h-.45V56.2l0-11.19v-.5H34l13.24.06c4.41,0,8.82.11,13.24.17h.27V45c0,1.9-.09,3.79-.13,5.65Zm0,0-.15-5.66c0-1.86-.11-3.7-.13-5.53l.28.27c-4.42,0-8.83.16-13.24.16L34,45.51l.49-.5L34.4,56.2,34,55.75c2.18,0,4.35,0,6.54.06l6.58.11Z" style="fill:#ebebeb"></path><path d="M248.88,351.24,262,351l6.66-.11c2.22-.05,4.46,0,6.69-.05h.45v.45l.05,11.19v.5h-.5l-13.24-.06c-4.41,0-8.82-.11-13.24-.17h-.27v-.27c0-1.9.09-3.79.13-5.65Zm0,0,.14,5.65c0,1.87.12,3.71.14,5.54l-.28-.27c4.42-.05,8.83-.16,13.24-.17l13.24-.06-.5.5.06-11.19.44.45c-2.18,0-4.35,0-6.54-.06l-6.58-.11Z" style="fill:#ebebeb"></path><path d="M263.65,337.13l13.13-.28,6.66-.11c2.23-.05,4.46,0,6.69-.05h.45v.45l.05,11.19v.5h-.51l-13.24-.06c-4.41,0-8.82-.11-13.24-.17h-.27v-.27c0-1.9.09-3.79.13-5.65Zm0,0,.15,5.66c0,1.86.11,3.7.13,5.53l-.28-.27c4.42-.05,8.83-.16,13.24-.17l13.24-.06-.49.5.05-11.19.44.45c-2.18,0-4.35,0-6.54-.06l-6.58-.11Z" style="fill:#ebebeb"></path><rect x="387.77" y="73.66" width="48.83" height="85.23" style="fill:#ebebeb"></rect><rect x="391.94" y="78.17" width="40.49" height="76.2" style="fill:#fff"></rect><rect x="436.61" y="73.66" width="2.26" height="85.23" style="fill:#dbdbdb"></rect><rect x="402.84" y="92.9" width="18.7" height="46.73" style="fill:#dbdbdb"></rect><rect x="406.77" y="182.41" width="48.83" height="52.03" style="fill:#ebebeb"></rect><rect x="410.94" y="186.92" width="40.49" height="43.01" style="fill:#fff"></rect><rect x="455.6" y="182.41" width="2.26" height="52.03" style="fill:#dbdbdb"></rect><rect x="421.84" y="201.65" width="18.7" height="13.54" style="fill:#dbdbdb"></rect><path d="M446.52,201.65a6,6,0,1,1-6-6A6,6,0,0,1,446.52,201.65Z" style="fill:#ebebeb"></path><circle cx="78.99" cy="76.94" r="26.35" style="fill:#ebebeb"></circle><circle cx="80.2" cy="77.52" r="25.14" transform="translate(-28.65 53.16) rotate(-31.41)" style="fill:#dbdbdb"></circle><circle cx="80.2" cy="77.52" r="23.55" transform="translate(-27 46.69) rotate(-27.98)" style="fill:#fff"></circle><path d="M103.22,72.53C92.49,79,74.86,89.68,65,95.53a23.51,23.51,0,0,1-6.43-8.66L91.16,56.68A23.57,23.57,0,0,1,103.22,72.53Z" style="fill:#ebebeb;opacity:0.5"></path><path d="M103.73,78.35A23.42,23.42,0,0,1,102.18,86L72.8,99.89a23,23,0,0,1-3.71-1.59C78,93.17,94.18,83.84,103.73,78.35Z" style="fill:#ebebeb;opacity:0.5"></path><rect x="79.97" y="55.68" width="0.45" height="3.57" style="fill:#c7c7c7"></rect><rect x="69.94" y="58.37" width="0.46" height="3.57" transform="translate(-20.68 43.14) rotate(-30)" style="fill:#c7c7c7"></rect><rect x="62.6" y="65.71" width="0.46" height="3.57" transform="translate(-27.04 88.15) rotate(-60)" style="fill:#c7c7c7"></rect><rect x="58.36" y="77.3" width="3.57" height="0.46" style="fill:#c7c7c7"></rect><rect x="61.04" y="87.33" width="3.57" height="0.46" transform="translate(-35.36 43.15) rotate(-30)" style="fill:#c7c7c7"></rect><rect x="68.38" y="94.67" width="3.57" height="0.46" transform="translate(-47.09 108.28) rotate(-60.03)" style="fill:#c7c7c7"></rect><rect x="79.97" y="95.8" width="0.45" height="3.57" style="fill:#c7c7c7"></rect><rect x="90" y="93.11" width="0.46" height="3.57" transform="translate(-35.36 57.82) rotate(-30)" style="fill:#c7c7c7"></rect><rect x="97.34" y="85.77" width="0.46" height="3.57" transform="translate(-27.04 128.26) rotate(-60)" style="fill:#c7c7c7"></rect><rect x="98.47" y="77.3" width="3.57" height="0.46" style="fill:#c7c7c7"></rect><rect x="95.78" y="67.27" width="3.57" height="0.46" transform="translate(-20.68 57.84) rotate(-30.01)" style="fill:#c7c7c7"></rect><rect x="88.44" y="59.93" width="3.57" height="0.46" transform="translate(-6.96 108.26) rotate(-60.02)" style="fill:#c7c7c7"></rect><polygon points="79.86 97.75 79.08 75.94 81.31 75.96 80.46 97.76 79.86 97.75" style="fill:#c7c7c7"></polygon><polygon points="66.27 85.13 80.94 75.76 82.01 77.73 66.56 85.67 66.27 85.13" style="fill:#a6a6a6"></polygon><circle cx="80.2" cy="77.52" r="0.76" style="fill:#c7c7c7"></circle><rect x="131.41" y="50.59" width="110.82" height="219.36" style="fill:#dbdbdb"></rect><rect x="138.9" y="58.68" width="44.46" height="63.82" style="fill:#fff"></rect><rect x="190.28" y="58.68" width="44.46" height="63.82" style="fill:#fff"></rect><rect x="138.9" y="128.36" width="44.46" height="63.82" style="fill:#fff"></rect><rect x="190.28" y="128.36" width="44.46" height="63.82" style="fill:#fff"></rect><rect x="138.9" y="198.04" width="44.46" height="63.82" style="fill:#fff"></rect><rect x="190.28" y="198.04" width="44.46" height="63.82" style="fill:#fff"></rect><rect x="257.77" y="50.59" width="110.82" height="219.36" style="fill:#dbdbdb"></rect><rect x="265.26" y="58.68" width="44.46" height="63.82" style="fill:#fff"></rect><rect x="316.64" y="58.68" width="44.46" height="63.82" style="fill:#fff"></rect><rect x="265.26" y="128.36" width="44.46" height="63.82" style="fill:#fff"></rect><rect x="316.64" y="128.36" width="44.46" height="63.82" style="fill:#fff"></rect><rect x="265.26" y="198.04" width="44.46" height="63.82" style="fill:#fff"></rect><rect x="316.64" y="198.04" width="44.46" height="63.82" style="fill:#fff"></rect><circle cx="338.87" cy="97.58" r="19.46" style="fill:#ebebeb;opacity:0.5"></circle><path d="M352.89,97.58a14,14,0,1,1-14-14A14,14,0,0,1,352.89,97.58Z" style="fill:#ebebeb"></path><path d="M183.21,102.93l.15-.15v5.11H156.52s5.85-16,14.86-16S183.21,102.93,183.21,102.93Z" style="fill:#ebebeb"></path><path d="M215.55,107.89H190.28V98a9.93,9.93,0,0,1,4-1c5,0,9.33,7.92,9.33,7.92S210.66,100.6,215.55,107.89Z" style="fill:#ebebeb"></path><path d="M303.93,147.18H276.34s6.17-8.93,11-8.93,6.29,5.95,6.29,5.95,3.43-2.78,6.61-2.28S303.93,147.18,303.93,147.18Z" style="fill:#ebebeb;opacity:0.5"></path><path d="M183.36,180.41v7H142.48s7.36-16.43,15.23-17.46,11.64,12.21,11.64,12.21,5.08-4.68,9.07-4.68C180.37,177.44,182.1,178.91,183.36,180.41Z" style="fill:#ebebeb"></path><path d="M196.22,187.37h-5.94V182.5C192.5,182.57,194.94,183.63,196.22,187.37Z" style="fill:#ebebeb"></path><path d="M309.72,209.33v16.29H289.78s7.35-16.43,15.23-17.46A6.78,6.78,0,0,1,309.72,209.33Z" style="fill:#ebebeb"></path><path d="M343.51,225.62H316.64v-5.25s5.08-4.68,9.07-4.68,7.07,6.16,7.07,6.16S340.77,217.63,343.51,225.62Z" style="fill:#ebebeb"></path><path d="M355,186.11h-36.3s6.23-11.9,13-12.07,10.32,9,10.32,9S352.58,174.6,355,186.11Z" style="fill:#ebebeb;opacity:0.5"></path><path d="M230.77,142.71H194.48s6.23-11.9,13-12.07,10.32,9,10.32,9S228.32,131.2,230.77,142.71Z" style="fill:#ebebeb;opacity:0.5"></path></g><g id="freepik--Floor--inject-200"><polygon points="42.13 406.22 94.1 405.98 146.07 405.89 250 405.72 353.93 405.89 405.9 405.98 457.87 406.22 405.9 406.47 353.93 406.56 250 406.72 146.07 406.56 94.1 406.47 42.13 406.22" style="fill:#263238"></polygon></g><g id="freepik--Shadow--inject-200"><ellipse cx="236.16" cy="447.19" rx="150.51" ry="18.1" style="fill:#ebebeb"></ellipse></g><g id="freepik--Lamps--inject-200"><rect x="217.18" width="0.73" height="86.04" style="fill:#263238"></rect><polygon points="247.78 115.18 245.34 120.53 189.74 120.53 187.31 115.18 210.99 98.8 224.1 98.8 247.78 115.18" style="fill:#45D8FF"></polygon><polygon points="225.75 83.01 224.1 98.8 210.99 98.8 209.34 83.01 225.75 83.01" style="fill:#45D8FF"></polygon><polygon points="247.77 115.18 245.34 120.53 189.74 120.53 187.31 115.18 247.77 115.18" style="opacity:0.1"></polygon><rect x="282.09" width="0.73" height="68.8" style="fill:#263238"></rect><polygon points="312.69 97.94 310.26 103.28 254.65 103.28 252.23 97.94 275.9 81.55 289.01 81.55 312.69 97.94" style="fill:#45D8FF"></polygon><polygon points="290.66 65.76 289.01 81.55 275.9 81.55 274.26 65.76 290.66 65.76" style="fill:#45D8FF"></polygon><polygon points="312.69 97.94 310.25 103.28 254.65 103.28 252.22 97.94 312.69 97.94" style="opacity:0.1"></polygon></g><g id="freepik--Character--inject-200"><polygon points="163.49 338.96 165.79 352.78 181.41 437.11 183.93 437.11 172.57 352.78 170.89 338.96 163.49 338.96" style="fill:#dbdbdb"></polygon><polygon points="170.89 338.96 163.49 338.96 165.79 352.78 172.57 352.78 170.89 338.96" style="fill:#c7c7c7"></polygon><polygon points="114.45 437.11 116.97 437.11 132.59 352.78 134.89 338.96 127.49 338.96 125.81 352.78 114.45 437.11" style="fill:#dbdbdb"></polygon><polygon points="127.49 338.96 125.81 352.78 132.59 352.78 134.89 338.96 127.49 338.96" style="fill:#c7c7c7"></polygon><polygon points="67.61 437.11 70.13 437.11 85.75 352.78 88.05 338.96 80.65 338.96 78.97 352.78 67.61 437.11" style="fill:#dbdbdb"></polygon><polygon points="78.97 352.78 85.75 352.78 88.05 338.96 80.65 338.96 78.97 352.78" style="fill:#c7c7c7"></polygon><polygon points="71.61 345.45 186.03 345.45 186.03 333.4 143.2 333.4 128.8 249.64 75.97 249.64 71.61 345.45" style="fill:#dbdbdb"></polygon><polygon points="71.61 345.45 77.84 345.45 81.91 249.64 75.97 249.64 71.61 345.45" style="fill:#c7c7c7"></polygon><path d="M188.34,451.89c-2.28.28-64.38-14.21-66.4-16.16-.24-.22,2.69-12.14,2.69-12.14,1-4.91,17.15-45,17.15-45l40.6,10-17.2,37.12S172.92,431,179.57,436c0,0,0,0,0,0a90.3,90.3,0,0,1,8.42,6.73C190,445.12,190.61,451.62,188.34,451.89Z" style="fill:#d3766a"></path><path d="M122.22,431.73,154,439s3.8-6.38,10.35-9.06c4.23-1.74,7.08-.36,7.08-.36S187.17,441.4,188.76,443s2.84,8.92.43,9.49-66.84-14.63-67.52-15.41S122.22,431.73,122.22,431.73Z" style="fill:#45D8FF"></path><path d="M166.06,423.86l-38.6-8.64s33.3-83.42,30.14-87.61c-1.58-2.09-41.71-2.71-54.47-13.52-16.58-14-5.42-36.83-5.42-36.83h44.78s-.54,9.36,1.2,10.77c1.16.94,54.55,5.43,60.41,23.42C211.3,333.51,166.06,423.86,166.06,423.86Z" style="fill:#d3766a"></path><path d="M156,329.3s26.59-15.79,45.51-25.58c0,0-3.82-2.79-18.92-8.11s-38.24-7-38.91-7.92-1.19-10.43-1.19-10.43H97.71s-8.4,16.28-1.26,30.43,31.76,16.87,40.78,17.79A117.93,117.93,0,0,1,156,329.3Z" style="fill:#37474f"></path><path d="M190.83,300.82c-1.13.5-11.1,6.48-13.29,7.87-4.39,2.79-8.77,5.6-13.11,8.48-2.26,1.5-7.12,4.7-7.34,5a.14.14,0,0,0,.19.2c4.5-2.54,8.9-5.26,13.31-8S189.81,302,191,301.07C191.06,301,191,300.75,190.83,300.82Z" style="fill:#263238"></path><path d="M272.92,452.55c-2.18.74-64.33-.14-66.7-1.65-.92-.88-1.65-8.83-2.21-18.72l-10.69-42.39,40-.33L245,431.56s8.63,3.6,16.15,7.17l0,0a88.27,88.27,0,0,1,9.58,4.92C273.17,445.59,275.09,451.84,272.92,452.55Z" style="fill:#d3766a"></path><path d="M204,446.56l32.61.44s2.39-7,8.22-11c3.78-2.59,6.86-1.83,6.86-1.83s17.84,8.25,19.73,9.47,4.64,8.14,2.4,9.2-68.41-.31-69.24-.93S204,446.56,204,446.56Z" style="fill:#45D8FF"></path><path d="M244.37,429.06l-40.9,1s-21.17-79.23-24.7-83.74c-4.71-6-70.65-5.88-84.79-25.51-12.7-17.62-.4-44.05-.4-44.05h48.35a102.74,102.74,0,0,1-4.63,15.7s60.15,11.09,77,29.52C225.68,334.39,244.37,429.06,244.37,429.06Z" style="fill:#d3766a"></path><path d="M180.52,348.78c-.47-1.5-.88-3.11-2.28-4s-21.36-3.59-23.61-3.94c-.1,0-.14.15,0,.17,1.93.32,20.37,3.62,22,4.17a3.73,3.73,0,0,1,1.8,1.16,8.06,8.06,0,0,1,1.05,2.51c.56,1.78,1.13,3.57,1.7,5.35,1.14,3.59,2.27,7.18,3.35,10.78,1.23,4.08,2.63,8.36,3.69,12.49.08.32.53.17.47-.14C187.27,369.57,181.12,350.65,180.52,348.78Z" style="fill:#263238"></path><path d="M198.25,311a22.78,22.78,0,0,1,3.39,1.49c.54.29,1.07.59,1.59.92a12.49,12.49,0,0,1,1.5,1.09c-1.14-.47-2.24-1-3.33-1.57A27.69,27.69,0,0,1,198.25,311Z" style="fill:#263238"></path><path d="M161.49,343.6,199,310.46A223.44,223.44,0,0,0,172,301c-16.22-4.6-34.44-8.47-34.44-8.47s3.89-13.3,4.39-15.83H92s-11.64,26.4-.78,41.81S129.79,339.5,161.49,343.6Z" style="fill:#37474f"></path><path d="M146,289a23.65,23.65,0,0,0-4.23,1.35c-1.43.55-2.84,1.17-4.22,1.84a83.85,83.85,0,0,0-7.9,4.46c-.08.05,0,.16.08.12,2.7-1.4,5.49-2.66,8.28-3.86l4-1.74a43.55,43.55,0,0,0,4.08-1.8C146.3,289.3,146.21,289,146,289Z" style="fill:#263238"></path><path d="M143,276.72c-.57,2.28-1.07,4.57-1.73,6.83-.29,1-.59,2.08-1,3.09-.33.84-.83,1.81-1.81,2-1.14.22-1.46-.75-1.37-1.68s.37-2.09.58-3.11c.24-1.18.48-2.37.69-3.55.11-.6.22-1.19.32-1.78,0-.15.14-1.29.22-1.61,0,0,0,0,.06,0h0s.07,0,.07-.06,0-.11-.06-.17a.08.08,0,0,0-.1,0c-.22.12-.23.42-.3.64-.19.57-.37,1.15-.54,1.73-.32,1.08-.63,2.17-.9,3.27s-.55,2.19-.82,3.29a5.2,5.2,0,0,0-.22,2.53,1.94,1.94,0,0,0,1.79,1.46l-.12.22c-.1.22-.17.46-.25.69s-.17.47-.24.71a2.33,2.33,0,0,0-.06.35c0,.14,0,.26,0,.4s.25.33.35.12.15-.2.22-.31a1.88,1.88,0,0,0,.16-.39c.08-.22.14-.45.2-.68s.13-.46.17-.7,0-.28.05-.42a2.5,2.5,0,0,0,1.31-.5A4.31,4.31,0,0,0,141.1,287c.35-.94.61-1.93.88-2.9a42.45,42.45,0,0,0,1.45-7.33A.21.21,0,0,0,143,276.72Z" style="fill:#263238"></path><path d="M137.54,292.57c25.51,3.15,54.45,14.1,61.5,17.89.09.05,0,.18-.08.14-7-3-42.56-15.22-61.51-17.43C137.1,293.13,137.2,292.53,137.54,292.57Z" style="fill:#263238"></path><path d="M188.3,309.65c-1.12.7-10.77,8.44-12.87,10.22-4.23,3.58-8.45,7.17-12.61,10.84-2.16,1.9-6.83,6-7,6.29a.15.15,0,0,0,.22.19c4.38-3.34,8.63-6.84,12.89-10.33s18.49-15.78,19.55-17C188.56,309.77,188.46,309.55,188.3,309.65Z" style="fill:#263238"></path><path d="M136.11,230c5.57,9.77,30.58,44,42.39,43.87,8.4-.11,38.56-10.37,44.81-15.25,3.55-2.78-12.85-26.63-18-24.79-6.36,2.28-23.09,11.95-27.08,12.1-2.15.08-15.44-10.17-34.24-23.75C134.34,215.23,131.3,221.6,136.11,230Z" style="fill:#d3766a"></path><path d="M221.15,259.92c3.08-1.29,16.64-8.45,20-11.28s12.31-11.69,10.4-14.46-4.75-.39-4.75-.39,3.2-4.34,1-6.95-6.47,1.24-6.47,1.24,3-4.7.6-7.15-6,2.14-6,2.14,2.91-4.16.12-5.36c-3.36-1.45-7.86,6.84-11.77,9.7-.89.65-18.93,11.86-18.93,11.86Z" style="fill:#d3766a"></path><path d="M236.21,222.69c-3.32,6.09-5.82,8.17-11.79,11.5-.12.06,0,.25.08.19,6.14-2.72,9.66-4.89,12-11.55C236.63,222.51,236.37,222.4,236.21,222.69Z" style="fill:#263238"></path><path d="M241.57,227.59c-4,6-6.7,8.31-12.69,12.25-.08.06,0,.21.09.16,6.2-3.38,9.67-5.62,12.87-12.16C242,227.54,241.76,227.31,241.57,227.59Z" style="fill:#263238"></path><path d="M246.46,234c-4.3,5.55-7.15,8.19-13.46,11.27a.13.13,0,0,0,.1.24c6.74-2.52,10.32-5.78,13.51-11.36C246.83,233.75,246.73,233.63,246.46,234Z" style="fill:#263238"></path><path d="M274.35,204.76c.13,1-5.76,14.81-10.18,24.82-2.51,5.68-4.55,10.13-4.75,10.31-.55.48-25.85-3.43-25.94-3.39s.14,1-.12,1.05a24.72,24.72,0,0,1-4.78-1.63c-.15-.29-.38-1.13-.57-1.21s-23.33-6.81-23.52-7.71,20.16-29.75,21.12-29.74c6.2,0,13.86,2.9,17.71,4.54,1.53.65,2.46,1.1,2.46,1.1C258.26,199.85,274.16,203.23,274.35,204.76Z" style="fill:#455a64"></path><path d="M230.89,235.21a27.39,27.39,0,0,0-12.64-5.58,46.3,46.3,0,0,1-13.36-4.16l20.72-28.21s16.23,1.74,19.8,6.52c0,0,6.43-2.57,11.47-2.55a59.7,59.7,0,0,1,12.54,1.64c2.07.5,3.95,1.15,3.95,1.15s-14.36,34-14.71,34.21a95.89,95.89,0,0,1-11.81-1.54C243,235.84,236.73,234.18,230.89,235.21Z" style="fill:#45D8FF"></path><path d="M230.89,235.21a27.39,27.39,0,0,0-12.64-5.58,46.3,46.3,0,0,1-13.36-4.16l20.72-28.21s16.23,1.74,19.8,6.52c0,0,6.43-2.57,11.47-2.55a59.7,59.7,0,0,1,12.54,1.64c2.07.5,3.95,1.15,3.95,1.15s-14.36,34-14.71,34.21a95.89,95.89,0,0,1-11.81-1.54C243,235.84,236.73,234.18,230.89,235.21Z" style="fill:#fff;opacity:0.5"></path><path d="M257.18,235.87a32,32,0,0,1-11.56-2.5c-3.43-1.35-7-2.82-10.43-2.26a7.54,7.54,0,0,0-4.44,2.34l-.07-.08a.08.08,0,0,0,0-.1,14.21,14.21,0,0,0-9.56-6.76c-4.3-.91-8.54-.25-12.83-.94a0,0,0,1,0,0,0c7.31,1.27,16.31-1.4,22.12,7.48-6.57-7.44-15.42-4.17-22.84-7.34,0,0,0,0,0,0,7.53,3.34,16.51-.17,23.1,7.74h0s0,.09,0,.06h0c0,.05.07,0,.05-.06,3.53-3.43,8.18-2.53,12.47-.92,2.31.86,4.6,1.87,6.94,2.48a27.45,27.45,0,0,0,7,.93C257.25,236,257.24,235.87,257.18,235.87Z" style="fill:#a6a6a6"></path><path d="M230.71,233.89l0,0,0,0-.11-.1a11,11,0,0,0-3.51-2.84,29.17,29.17,0,0,0-4.9-1.66,32.35,32.35,0,0,0-4.75-.68,42.86,42.86,0,0,1-5.55-.93s0,0,0,0a40,40,0,0,0,4.77.9c1.69.21,3.39.29,5.08.67a33.6,33.6,0,0,1,4.63,1.48,10,10,0,0,1,3.49,2.37,14,14,0,0,0-5-2.63,43.84,43.84,0,0,0-7.15-1.4h0a47.35,47.35,0,0,1,7,1.42,14.08,14.08,0,0,1,5.92,3.36c.05.06.11.11.16.18S230.75,233.94,230.71,233.89Z" style="fill:#a6a6a6"></path><path d="M254.63,236.33c-2.12-.37-4.25-.66-6.37-1.18s-4-1.24-6.07-1.88a18.37,18.37,0,0,0-5.82-1.07,14.36,14.36,0,0,0-5.61,1.55s0,0,0,0a16.43,16.43,0,0,1,6-1.47,20.92,20.92,0,0,1,6,1.28c1.94.64,3.88,1.32,5.85,1.77a55.45,55.45,0,0,0,5.94,1S254.66,236.33,254.63,236.33Z" style="fill:#a6a6a6"></path><path d="M249,236.05c-3.12-.38-6.2-1.67-9.31-2.3a20.28,20.28,0,0,0-8.88.31s0,.05,0,.05a21.78,21.78,0,0,1,9.51-.12c2.89.66,5.75,1.78,8.66,2.09C249,236.08,249,236.06,249,236.05Z" style="fill:#a6a6a6"></path><path d="M250.29,236.88c-3.3.06-6.54-1.62-9.81-2.47a20.38,20.38,0,0,0-9.43-.33h0a22.55,22.55,0,0,1,10.11.52c3,.89,6.06,2.39,9.14,2.3C250.31,236.91,250.31,236.88,250.29,236.88Z" style="fill:#a6a6a6"></path><path d="M273.07,200.14l-15.18,35.74s-6.22-.74-9.23-2.12-11.74-7.9-17.93-.59h0s-3.22-6.58-9-7.89-12,.45-16.54-1.45c0,0,15-22.16,20.44-27.42a31.6,31.6,0,0,0,5.79,1.39c5.85.53,10.72.39,14,6h0a28.72,28.72,0,0,1,9.86-3.52C260.94,199.38,273.07,200.14,273.07,200.14Z" style="fill:#45D8FF"></path><path d="M273.07,200.14l-15.18,35.74s-6.22-.74-9.23-2.12-11.74-7.9-17.93-.59h0s-3.22-6.58-9-7.89-12,.45-16.54-1.45c0,0,15-22.16,20.44-27.42a31.6,31.6,0,0,0,5.79,1.39c5.85.53,10.72.39,14,6h0a28.72,28.72,0,0,1,9.86-3.52C260.94,199.38,273.07,200.14,273.07,200.14Z" style="fill:#fff;opacity:0.8"></path><path d="M229.61,227.22a15.31,15.31,0,0,0-9-6.46c-4-.85-7.68,1.39-11.66.53,0,0,0,0,0,0,3.8,1,7.33-1.08,11.11-.46,3.49.58,6.88,2.92,9.49,6.42C229.6,227.33,229.64,227.26,229.61,227.22Z" style="fill:#c7c7c7"></path><path d="M230.43,224.76a14.77,14.77,0,0,0-8.21-6.23,10.86,10.86,0,0,0-4.74-.14c-1.9.33-3.77.91-5.75.58,0,0,0,.05,0,.05a12.84,12.84,0,0,0,4.9-.32,12.14,12.14,0,0,1,5.3-.08c3.18.76,6.1,3,8.47,6.2C230.42,224.85,230.45,224.8,230.43,224.76Z" style="fill:#c7c7c7"></path><path d="M256.2,232.74a25.8,25.8,0,0,1-5.5-1.48,34,34,0,0,1-5.24-3c-3.26-2.06-6.53-2.41-9.66-.85,0,0,0,0,0,0a8.79,8.79,0,0,1,5-.8,12.73,12.73,0,0,1,5.13,2.17,25.49,25.49,0,0,0,5.08,2.71,24.41,24.41,0,0,0,5.14,1.26S256.23,232.74,256.2,232.74Z" style="fill:#c7c7c7"></path><path d="M257.24,230a27.75,27.75,0,0,1-5.55-1.36,53.69,53.69,0,0,1-5.13-2.49c-3-1.55-6.64-3.21-9.59-1.68,0,0,0,.09,0,.08a7.73,7.73,0,0,1,5.24-.06,26.46,26.46,0,0,1,4.88,2.09,41.1,41.1,0,0,0,5,2.32,21.79,21.79,0,0,0,5.17,1.17S257.27,230,257.24,230Z" style="fill:#c7c7c7"></path><path d="M245.44,204A272.76,272.76,0,0,0,230.8,232.8s0,0,0,0c2.34-5,4.66-9.92,7.13-14.76s5-9.4,7.56-14C245.55,204,245.48,203.93,245.44,204Z" style="fill:#c7c7c7"></path><path d="M232.64,220.54a12.62,12.62,0,0,0-3.32-3.62,15.07,15.07,0,0,0-4.45-2.58c-3.28-1-6.54-.14-9.81-.5,0,0,0,0,0,0,3.14.43,6.23-.34,9.36.5a13.34,13.34,0,0,1,4.41,2.36,14,14,0,0,1,3.78,3.84S232.65,220.56,232.64,220.54Z" style="fill:#c7c7c7"></path><path d="M233.5,219.08a12.11,12.11,0,0,0-7-6.18c-3.36-1.15-6.77-.91-10.13-1.07,0,0,0,0,0,0,5.79.55,13-.52,17.08,7.26C233.48,219.16,233.52,219.12,233.5,219.08Z" style="fill:#c7c7c7"></path><path d="M234.57,217.54a13,13,0,0,0-5.17-6c-2.52-1.4-5.23-1.28-7.81-1.55,0,0,0,0,0,0,2.57.45,5.18.21,7.7,1.58a12.89,12.89,0,0,1,5.23,6S234.59,217.59,234.57,217.54Z" style="fill:#c7c7c7"></path><path d="M236,215.73c-3.66-7.38-10.66-7.86-16.17-7.87,0,0,0,0,0,0,5.56.18,12.36.58,16.14,7.87C236,215.8,236.05,215.77,236,215.73Z" style="fill:#c7c7c7"></path><path d="M223.85,202.94s0,0,0,0c4.71,1.05,12.11-.29,15.59,7.21,0,0,0,0,0,0C236.25,202.75,228.91,203.76,223.85,202.94Z" style="fill:#c7c7c7"></path><path d="M239.43,203.19a6.7,6.7,0,0,0-3.12-1.57,33.55,33.55,0,0,0-7.83-1.12s0,.06,0,.06a35.35,35.35,0,0,1,7.51,1.08,7.66,7.66,0,0,1,3.15,1.41,14.64,14.64,0,0,1,2.51,3.31s0,0,0,0A12.7,12.7,0,0,0,239.43,203.19Z" style="fill:#c7c7c7"></path><path d="M235,202.87c-3.13-1.07-6.29-.6-9.44-1.21,0,0,0,0,0,.05,5,1.14,12.1-.8,15.24,6.9,0,0,.07,0,.05,0A9.44,9.44,0,0,0,235,202.87Z" style="fill:#c7c7c7"></path><path d="M268.43,204.14a43.05,43.05,0,0,0-15.28.34s0,0,0,0a52.18,52.18,0,0,1,15.29-.26C268.5,204.25,268.49,204.15,268.43,204.14Z" style="fill:#c7c7c7"></path><path d="M266.88,206.76a58.11,58.11,0,0,0-20.47,1.3s0,.09,0,.08a61.56,61.56,0,0,1,20.46-1.26C267,206.89,266.94,206.77,266.88,206.76Z" style="fill:#c7c7c7"></path><path d="M265.41,209.71a31.52,31.52,0,0,0-5.27-.6,47.74,47.74,0,0,0-5.35,0,43.26,43.26,0,0,0-10.36,1.73s0,0,0,0a55.47,55.47,0,0,1,10.49-1.64,50.7,50.7,0,0,1,5.23,0c1.76.09,3.51.38,5.26.53C265.44,209.77,265.44,209.72,265.41,209.71Z" style="fill:#c7c7c7"></path><path d="M261.29,220.51c-6.73-1.4-13.76-4.71-20.36-2.79,0,0,0,.06,0,.05,6.69-1.72,13.56,1.5,20.36,2.84C261.34,220.62,261.34,220.52,261.29,220.51Z" style="fill:#c7c7c7"></path><path d="M261.62,218.53c-1.42-.48-2.86-.86-4.28-1.33s-2.86-.95-4.29-1.33a16.33,16.33,0,0,0-8.13-.42s0,0,0,0a18,18,0,0,1,8.56.66c2.7.75,5.41,2,8.13,2.49C261.66,218.63,261.66,218.54,261.62,218.53Z" style="fill:#c7c7c7"></path><path d="M258.85,227a54.08,54.08,0,0,1-7.62-2.39,41.86,41.86,0,0,0-7.41-2.29,0,0,0,0,0,0,0,55.62,55.62,0,0,1,7.61,2.45,39.61,39.61,0,0,0,7.42,2.29S258.89,227.05,258.85,227Z" style="fill:#c7c7c7"></path><path d="M199.16,236.66s5-7.09,7.93-9.71,17.29-8.44,18.72-5.4c1.85,3.92-5.8,8.91-9.87,10.87,0,0,4.29,9.07-.43,13.84S199.16,236.66,199.16,236.66Z" style="fill:#d3766a"></path><path d="M226,222.79c-.9,4.79-6.4,7-10.21,9.21a.4.4,0,0,0-.08.65c1.54,3.92,2.57,9.9.11,13.6a.1.1,0,0,0,.16.13c3.18-3.61,2.65-9.57.68-13.75,3.94-2.19,9.36-4.66,9.38-9.83C226,222.77,226,222.76,226,222.79Z" style="fill:#263238"></path><path d="M150.07,254.26l15.34-18.18a223,223,0,0,0-20.91-15.16c-9.52-5.79-16.33-4-7.7,11.8S150.07,254.26,150.07,254.26Z" style="fill:#45D8FF"></path><path d="M150.07,254.26l15.34-18.18a223,223,0,0,0-20.91-15.16c-9.52-5.79-16.33-4-7.7,11.8S150.07,254.26,150.07,254.26Z" style="opacity:0.2"></path><path d="M147.93,249.7a192,192,0,0,0,13.17-15.64c.05-.06-.06-.13-.11-.07-1,1.32-8.51,9.56-13.18,15.63C147.76,249.69,147.87,249.76,147.93,249.7Z" style="fill:#263238"></path><path d="M157.78,245.13l-7.71,9.13s-4.64-5.77-13.27-21.54c-5-9-4.82-13.49-2-14.56Z" style="opacity:0.1"></path><path d="M146.81,289.62c-1.55,1.22-62.36,1.13-62.62.69-.68-1.17,16.52-56.43,42.66-73.34,4.61-3,11.53-.79,14.52,1.61,1.5,1.2,5.08,9.77,5.59,17.11S147.79,288.85,146.81,289.62Z" style="fill:#45D8FF"></path><path d="M197,237.92s14.4-6.63,14.4-15.52-18.67-14.61-18.67-21.56,8.14-11,8.14-11-12.86,4.4-12.86,13.18,12.31,14.75,13.48,20.34C203.17,231.08,197,237.92,197,237.92Z" style="fill:#dbdbdb;opacity:0.6000000000000001"></path><path d="M197.75,237.92s-14.39-5.21-14.39-12.2,18.67-11.49,18.67-17-8.14-8.67-8.14-8.67,12.86,3.45,12.86,10.36-14.14,11.66-15.15,17.27S197.75,237.92,197.75,237.92Z" style="fill:#dbdbdb;opacity:0.6000000000000001"></path><rect x="190.35" y="260.27" width="13.69" height="2.14" style="fill:#45D8FF"></rect><rect x="190.35" y="260.27" width="13.69" height="1.41" style="fill:#263238"></rect><path d="M174.09,254.53a7.76,7.76,0,0,0,7.72,3.29,6.89,6.89,0,0,0,1.38-.4,9.25,9.25,0,0,0,1.94-1l-1.74-2.58a6.79,6.79,0,0,1-1,.58,4.55,4.55,0,0,1-5.73-1.68c-1.87-2.64-2.55-8.66-.65-11,.13-.17.68-.44,2.89,0,.4.09.86.19,1.39.34a6.19,6.19,0,0,0,1.25.27l.05-1.55.15-1.55c-.14,0-.36-.09-.65-.17a20.27,20.27,0,0,0-3.11-.65c-1.62-.16-3.33,0-4.37,1.31C170.49,243.57,171.74,251.22,174.09,254.53Z" style="fill:#45D8FF"></path><path d="M183.39,253.83a6.79,6.79,0,0,1-1,.58l.83,3a9.25,9.25,0,0,0,1.94-1Z" style="fill:#263238"></path><path d="M178,238.47l.92,3.31c.4.09.86.19,1.39.34a6.19,6.19,0,0,0,1.25.27l.05-1.55.15-1.55c-.14,0-.36-.09-.65-.17A20.27,20.27,0,0,0,178,238.47Z" style="fill:#263238"></path><path d="M215.41,234.44s-1.64,13.95-4.48,19.83-6.8,6.53-9.26,6.53h-8.95c-2.46,0-6.42-.66-9.26-6.53S179,234.44,179,234.44Z" style="fill:#45D8FF"></path><path d="M184.93,238.42a1.62,1.62,0,1,1-1.62-1.61A1.61,1.61,0,0,1,184.93,238.42Zm12.65-1.95a1.62,1.62,0,1,0,1.62,1.61A1.62,1.62,0,0,0,197.58,236.47Zm0,20.31a1.62,1.62,0,1,0,1.62,1.61A1.62,1.62,0,0,0,197.58,256.78Zm11.73-9.16a1.62,1.62,0,1,0,1.61,1.61A1.61,1.61,0,0,0,209.31,247.62Zm-18,4.77A1.62,1.62,0,1,0,193,254,1.62,1.62,0,0,0,191.34,252.39Zm19-15.92a1.62,1.62,0,1,0,1.61,1.61A1.61,1.61,0,0,0,210.33,236.47Zm-12.94,10.89A1.62,1.62,0,1,0,199,249,1.63,1.63,0,0,0,197.39,247.36Zm-12.26.26a1.62,1.62,0,1,0,1.62,1.61A1.62,1.62,0,0,0,185.13,247.62ZM204,242.21a1.62,1.62,0,1,0,1.62,1.61A1.62,1.62,0,0,0,204,242.21Zm-.44,10.45a1.62,1.62,0,1,0,1.61,1.61A1.61,1.61,0,0,0,203.6,252.66Zm-13-10.45a1.62,1.62,0,1,0,1.61,1.61A1.61,1.61,0,0,0,190.58,242.21Z" style="opacity:0.1"></path><path d="M117.77,227.86c-11,21.36-25.8,56.7-15.7,62,9.23,4.85,33-2.69,50-12.61,3.26-1.91-6.44-28.55-10.2-27.07-6.89,2.72-17.8,9.15-18.23,9.37-.94.48,2.51-10.34,4.84-27.21C130.87,214.8,121.75,220.11,117.77,227.86Z" style="fill:#d3766a"></path><path d="M184.71,245.11c.23,3.35-8.09,3.22-8.09,3.22a6.25,6.25,0,0,1,2.74,3.21c.78,2.44-2.7,4.73-2.7,4.73a7.61,7.61,0,0,1,2.34,3.85c.52,2.4-2.66,5.22-2.66,5.22a7,7,0,0,1-.07,4.68c-2.74,6.62-21.27,7.86-26.63,7.09l-8.72-26s14.87-11,22.37-11.8C167.46,238.87,184.36,240,184.71,245.11Z" style="fill:#d3766a"></path><path d="M176.55,248.24c-4.47-1-9.17-.93-13.7-.81-.1,0-.09.15,0,.16,4.51.14,9.16.85,13.67.86A.11.11,0,0,0,176.55,248.24Z" style="fill:#263238"></path><path d="M176.59,256.13a11.64,11.64,0,0,0-3.12,0c-1.11.09-2.21.19-3.31.31-2.2.24-4.39.53-6.58.89-.09,0-.09.17,0,.16q3.28-.36,6.59-.59l3.31-.19a14.14,14.14,0,0,0,3.11-.3A.16.16,0,0,0,176.59,256.13Z" style="fill:#263238"></path><path d="M176.25,265.34a8.59,8.59,0,0,0-2.81.17c-1,.14-2,.26-3,.38-2,.24-4,.48-6,.65a.08.08,0,1,0,0,.15c2-.16,4.09-.29,6.13-.47l3-.28a7.88,7.88,0,0,0,2.7-.5C176.31,265.42,176.29,265.35,176.25,265.34Z" style="fill:#263238"></path><path d="M147.94,246.34a54.89,54.89,0,0,1,6.12-4,34,34,0,0,1,6.72-3,20.77,20.77,0,0,1,7.39-.44,46,46,0,0,1,7.22,1.17c-1.21-.09-2.42-.2-3.63-.25s-2.42-.14-3.63-.15-2.41,0-3.6.06a14.8,14.8,0,0,0-3.47.57,26.6,26.6,0,0,0-3.35,1.25c-1.11.46-2.19,1-3.29,1.51s-2.17,1.07-3.24,1.63S149,245.78,147.94,246.34Z" style="fill:#263238"></path><path d="M175.65,271.08a4.57,4.57,0,0,0,.9-2.78,6.44,6.44,0,0,0-.16-1.45,9.92,9.92,0,0,0-.42-1.41l-.06-.18.16-.14a11.17,11.17,0,0,0,1.72-2,4.32,4.32,0,0,0,.82-2.29,5.08,5.08,0,0,0-.8-2.32,12.59,12.59,0,0,0-1.57-2.06l-.45-.46.57-.32a6.71,6.71,0,0,0,1.75-1.39,3.17,3.17,0,0,0,.87-1.88,3.22,3.22,0,0,0-.63-2,6.49,6.49,0,0,0-1.6-1.58l-1.06-.77,1.28,0a17.25,17.25,0,0,0,4.47-.41,6.44,6.44,0,0,0,2.08-.81,2.48,2.48,0,0,0,1.19-1.8,2.47,2.47,0,0,1-1,2,7,7,0,0,1-2.1,1.08,18.08,18.08,0,0,1-4.63.7l.21-.73a6.82,6.82,0,0,1,1.93,1.74,3.76,3.76,0,0,1-.23,5,7.35,7.35,0,0,1-2.05,1.62l.13-.79a13.31,13.31,0,0,1,1.7,2.27,6,6,0,0,1,.85,2.8,4.83,4.83,0,0,1-1.1,2.72,11.25,11.25,0,0,1-2,2l.09-.32a9.85,9.85,0,0,1,.35,1.52,8,8,0,0,1,0,1.55A4.43,4.43,0,0,1,175.65,271.08Z" style="fill:#263238"></path><path d="M123.6,259.56a28.18,28.18,0,0,1-3.84,2.92,27.7,27.7,0,0,1-4.23,2.28,27.09,27.09,0,0,1,3.83-2.92A27.41,27.41,0,0,1,123.6,259.56Z" style="fill:#263238"></path><path d="M103.06,251.26l23.3,4.75a221.21,221.21,0,0,0,3.29-25.61c.53-11.13-4.34-16.23-14.05-1.11S103.06,251.26,103.06,251.26Z" style="fill:#45D8FF"></path><path d="M103.06,251.26l23.3,4.75a221.21,221.21,0,0,0,3.29-25.61c.53-11.13-4.34-16.23-14.05-1.11S103.06,251.26,103.06,251.26Z" style="opacity:0.2"></path><path d="M106,247.19a188.3,188.3,0,0,0,20,4.07c.07,0,.09-.11,0-.12-1.64-.25-12.47-2.89-20-4.09C106,247,106,247.17,106,247.19Z" style="fill:#263238"></path><path d="M106.65,252c-.35-.18-3.44-.72-3.57-.74,1.67-3.19,3.49-6.25,5.33-9.35l2.8-4.68c1-1.59,2-3.15,2.79-4.82,0,0,0-.09-.07,0a38.67,38.67,0,0,0-2.78,3.93c0-.07,0-.14.07-.2.26-.77.53-1.53.85-2.27,0-.09-.1-.16-.14-.07-.37.73-.75,1.46-1.06,2.22a11,11,0,0,0-.38,1.1c0,.11,0,.22-.07.33-.89,1.35-1.76,2.71-2.59,4.1q-1.41,2.34-2.68,4.76c-.86,1.63-2.72,5.17-2.64,5.28a30.2,30.2,0,0,0,4.08.54C106.65,252.08,106.7,252,106.65,252Z" style="fill:#263238"></path><path d="M126.71,256.23c.63-2.9,1-6,1.43-9,.14-1,.25-2,.35-3.08.35-1.09.57-2.22.83-3.33,0-.1-.12-.12-.15,0-.16.62-.35,1.24-.51,1.86.12-1.42.23-2.83.31-4.25,0-.05-.07-.07-.07,0-.38,2.93-.81,5.85-1.26,8.76s-.79,5.86-1.32,8.76c0,0-2.22-.43-2.21-.38S126.71,256.25,126.71,256.23Z" style="fill:#263238"></path><path d="M138.45,227.94c-3.55.39-8.82-5.6-10.64-10.15-.12-.32,2.53-11.86,2.82-14.21.06-.48,14.28,5.38,14.28,5.38a37.63,37.63,0,0,0-2.53,8.82C142.35,218.12,141.88,227.56,138.45,227.94Z" style="fill:#d3766a"></path><path d="M144.91,209h0c0,.07-.14.35-.32.8-.3.76-.76,2-1.19,3.43a27.54,27.54,0,0,0-1,4.59c0,.11,0,.22,0,.32v.05c0,.2,0,.45-.06.76a9.35,9.35,0,0,1-1.44-.1c-8-1.16-9.48-11.32-9.76-15.18l.25.08c.38.1.88.27,1.47.48l.46.17c1,.35,2.09.78,3.27,1.23l1.17.46,2.49,1,1,.4,1,.41.47.18.21.1c.47.18.86.34,1.18.48l.57.22.23.11h0Z" style="fill:#263238"></path><path d="M129.76,188.78c-1.49,5.28,1.61,20.38,5.42,23.68,5.52,4.79,14.4,5.07,18.43-1.53,3.91-6.39-.47-26-4.71-29C142.65,177.56,132,181,129.76,188.78Z" style="fill:#d3766a"></path><path d="M130.87,200.1s-4.66-8.56-4-13.35c.31-2.17,3.34-3.49,3.34-3.49a4.92,4.92,0,0,1,1.79-4.87c2.68-2.31,8.89-1.47,8.89-1.47s4.31-5.65,9.92-3.07,1.58,8.88,1.58,8.88,1.95,3.08-3.28,5.17-15.18-.68-15.18-.68a35.54,35.54,0,0,1-.65,10.55A3.24,3.24,0,0,1,130.87,200.1Z" style="fill:#263238"></path><path d="M141.91,177a10,10,0,0,0-4-.92,10.92,10.92,0,0,0-3.64.39,6,6,0,0,0-4.44,4.32,4.18,4.18,0,0,0,.65,3.2s.08,0,.06-.05c-1.25-1.7-.44-4.21,1-5.52a9.13,9.13,0,0,1,6.14-1.94,18.09,18.09,0,0,1,4.19.64C142,177.18,142,177.08,141.91,177Z" style="fill:#263238"></path><path d="M154.8,176.8a4.9,4.9,0,0,0-3.24-3.28,8.39,8.39,0,0,0-5.42-.06,10.47,10.47,0,0,0-4.57,3.07s0,.08.05.05a9.24,9.24,0,0,1,9-2.87,4.51,4.51,0,0,1,3.21,6.9,9.3,9.3,0,0,1-3.84,3.51,0,0,0,1,0,0,.06,9.67,9.67,0,0,0,3.8-3A5.47,5.47,0,0,0,154.8,176.8Z" style="fill:#263238"></path><path d="M150.38,188.22a17.16,17.16,0,0,1-7.25.91,35,35,0,0,1-7.51-1.39c-1.43-.41-2.84-.88-4.24-1.37a0,0,0,1,0,0,.06,37.79,37.79,0,0,0,7.63,2.75,19.18,19.18,0,0,0,7.47.28,15.94,15.94,0,0,0,4-1.19S150.41,188.21,150.38,188.22Z" style="fill:#263238"></path><path d="M153.61,210.93c-4,6.6-12.91,6.32-18.43,1.53-1.77-1.54-3.39-5.63-4.47-10.1a8.26,8.26,0,0,0,0-3.56l2.29-.14s4.54,5.76,9.27,5.76a10.77,10.77,0,0,0,7.44-2.88H151a3.18,3.18,0,0,0,2.4,1.36c1.41-.05,1.51-3.5,1.51-3.5C155.39,204.07,155.11,208.48,153.61,210.93Z" style="opacity:0.1"></path><path d="M145.21,196.92s-.07.07-.06.11c.27,1,.4,2.2-.44,2.75,0,0,0,.06,0,.05C145.82,199.42,145.62,197.83,145.21,196.92Z" style="fill:#263238"></path><path d="M144.06,196.07c-1.65.25-1,3.55.51,3.32S145.45,195.86,144.06,196.07Z" style="fill:#263238"></path><path d="M151,195.9s.09,0,.1.07c.16,1,.52,2.18,1.51,2.34,0,0,0,.06,0,.06C151.46,198.43,151,196.9,151,195.9Z" style="fill:#263238"></path><path d="M151.72,194.66c1.62-.44,2.37,2.83.88,3.24S150.37,195,151.72,194.66Z" style="fill:#263238"></path><path d="M142.59,194.77c.44-.15.83-.37,1.25-.56a2.2,2.2,0,0,0,1.18-.81.71.71,0,0,0-.18-.85,1.74,1.74,0,0,0-1.78,0,2.56,2.56,0,0,0-1.4,1.23C141.34,194.32,142,195,142.59,194.77Z" style="fill:#263238"></path><path d="M152.7,192.62a12.44,12.44,0,0,1-1.37-.1,2.25,2.25,0,0,1-1.39-.36.72.72,0,0,1-.12-.86,1.79,1.79,0,0,1,1.66-.65,2.65,2.65,0,0,1,1.74.68A.76.76,0,0,1,152.7,192.62Z" style="fill:#263238"></path><path d="M145.92,206.57c.29.2.6.48,1,.44a2.9,2.9,0,0,0,1.05-.46,0,0,0,0,1,.06,0,1.43,1.43,0,0,1-1.2.8,1.1,1.1,0,0,1-1-.75C145.8,206.58,145.88,206.55,145.92,206.57Z" style="fill:#263238"></path><path d="M146.42,203.31a3.5,3.5,0,0,0,2.61,1.11,4.17,4.17,0,0,0,1.26-.18l.23-.07.22-.08a.25.25,0,0,0,.16-.26h0a.29.29,0,0,0,0-.1h0l0-.09c-.13-.79-.43-2-.43-2,.32.09,1.91.47,1.8.06a52.76,52.76,0,0,0-3.33-10.26.1.1,0,0,0-.19.06c.69,3.26,1.94,6.38,2.68,9.65a6,6,0,0,0-1.73-.19c-.11.05.62,2.27.65,2.63a0,0,0,0,1,0,0,4.88,4.88,0,0,1-3.81-.44C146.41,203.16,146.34,203.24,146.42,203.31Z" style="fill:#263238"></path><path d="M133.41,201.05s-3.63-4.76-5.81-3.44.7,8.31,3.35,9.17a2.67,2.67,0,0,0,3.51-1.58Z" style="fill:#d3766a"></path><path d="M128.48,199.59a0,0,0,0,0,0,.07c1.86.67,2.89,2.32,3.64,4.05a1.47,1.47,0,0,0-2.21-.3c-.05,0,0,.1,0,.09a1.65,1.65,0,0,1,1.83.5,8.34,8.34,0,0,1,.92,1.41c.09.16.38.06.31-.12v0C133,202.91,131,199.72,128.48,199.59Z" style="fill:#263238"></path></g><g id="freepik--Table--inject-200"><rect x="155.82" y="396.05" width="24.77" height="4.35" style="fill:#455a64"></rect><polygon points="194.02 459.77 191.34 459.77 169.53 357.93 168.28 352.13 164.37 333.85 162.91 327.03 157.42 301.45 155.5 292.49 165.03 292.49 166.58 301.45 167.6 307.33 168.28 311.25 172.19 333.85 173.45 341.12 194.02 459.77" style="fill:#455a64"></polygon><polygon points="165.03 292.49 166.58 301.45 157.42 301.45 155.5 292.49 165.03 292.49" style="fill:#263238"></polygon><polygon points="173.45 341.12 169.53 357.93 168.28 352.13 164.37 333.85 162.91 327.03 167.6 307.33 168.28 311.25 172.19 333.85 173.45 341.12" style="fill:#263238"></polygon><polygon points="181.06 292.49 179.14 301.45 172.19 333.85 168.28 352.13 145.22 459.77 142.55 459.77 164.37 333.85 168.28 311.25 169.98 301.45 171.53 292.49 181.06 292.49" style="fill:#455a64"></polygon><polygon points="181.06 292.49 179.14 301.45 169.98 301.45 171.53 292.49 181.06 292.49" style="fill:#263238"></polygon><rect x="319.25" y="396.05" width="24.77" height="4.35" style="fill:#455a64"></rect><polygon points="357.45 459.77 354.77 459.77 332.96 357.93 331.72 352.13 327.8 333.85 326.34 327.03 320.85 301.45 318.93 292.49 328.46 292.49 330.01 301.45 331.03 307.33 331.72 311.25 335.63 333.85 336.89 341.12 357.45 459.77" style="fill:#455a64"></polygon><polygon points="328.46 292.49 330.01 301.45 320.85 301.45 318.93 292.49 328.46 292.49" style="fill:#263238"></polygon><polygon points="336.89 341.12 332.96 357.93 331.72 352.13 327.8 333.85 326.34 327.03 331.03 307.33 331.72 311.25 335.63 333.85 336.89 341.12" style="fill:#263238"></polygon><polygon points="344.49 292.49 342.57 301.45 335.63 333.85 331.72 352.13 308.65 459.77 305.98 459.77 327.8 333.85 331.72 311.25 333.41 301.45 334.96 292.49 344.49 292.49" style="fill:#455a64"></polygon><polygon points="344.49 292.49 342.57 301.45 333.41 301.45 334.96 292.49 344.49 292.49" style="fill:#263238"></polygon><rect x="136.27" y="280.73" width="227.46" height="11.75" style="fill:#455a64"></rect></g><g id="freepik--Plant--inject-200"><path d="M240.05,227.87c8.73,8.55,10.19,21.76,8.35,33.34,0,.26-.45.19-.45,0,0-2.64.08-5.25.07-7.86-.05-.12-.09-.23-.13-.35a17.33,17.33,0,0,1-5.67-6.09c-1.46-2.86-2-6.1-3.15-9.09-.1-.29.2-.2.4-.06,5.31,3.92,7,8.13,8.53,13.76a46.55,46.55,0,0,0-.93-8.76,29.81,29.81,0,0,0-7.25-14.61C239.68,228,239.9,227.72,240.05,227.87Z" style="fill:#263238"></path><path d="M238.41,228.87c-1.5,0-2.44,2.45-3.61,3.15a1.13,1.13,0,0,1-1.66-.26c-1.16-1.62.43-3.62,1.93-4.73a16.78,16.78,0,0,1-3.11,1.43,1.09,1.09,0,0,1-1.41-.84c-.51-2.21,2.26-3.19,4.16-3.24-.92-.64-3.56-2.38-2.16-3.23s4.52,1.63,5.53,2.45c1.48,1.2,3.25,3,3.32,4.88C241.49,230.68,239.57,229.33,238.41,228.87Z" style="fill:#45D8FF"></path><path d="M238.41,228.87c-1.5,0-2.44,2.45-3.61,3.15a1.13,1.13,0,0,1-1.66-.26c-1.16-1.62.43-3.62,1.93-4.73a16.78,16.78,0,0,1-3.11,1.43,1.09,1.09,0,0,1-1.41-.84c-.51-2.21,2.26-3.19,4.16-3.24-.92-.64-3.56-2.38-2.16-3.23s4.52,1.63,5.53,2.45c1.48,1.2,3.25,3,3.32,4.88C241.49,230.68,239.57,229.33,238.41,228.87Z" style="opacity:0.1"></path><path d="M238.84,229.24c-1.92-.88-5.6.38-5.92-.35-.63-1.47,2.31-2.49,3.91-2.69-1.47-.39-4.28-1-4.19-2.44.11-1.72,4.3-.24,6.43,1.39,2.68,2,2.66,4,2.22,4.43C240.68,230.13,239.16,229.38,238.84,229.24Z" style="fill:#45D8FF"></path><path d="M259.93,227c-9.05,8.2-11,21.35-9.62,33,0,.27.45.21.46,0,.1-2.64.12-5.25.22-7.85.06-.12.1-.23.15-.35a17.62,17.62,0,0,0,5.9-5.87c1.56-2.81,2.26-6,3.49-9,.11-.28-.2-.21-.4-.07-5.46,3.71-7.31,7.86-9,13.43a46.63,46.63,0,0,1,1.25-8.73,29.92,29.92,0,0,1,7.81-14.32C260.3,227.12,260.08,226.88,259.93,227Z" style="fill:#263238"></path><path d="M261.53,228.08c1.5.11,2.34,2.54,3.49,3.29a1.13,1.13,0,0,0,1.66-.2c1.22-1.57-.29-3.63-1.74-4.8a16.51,16.51,0,0,0,3.05,1.55,1.09,1.09,0,0,0,1.44-.79c.59-2.18-2.14-3.27-4-3.39.95-.6,3.65-2.24,2.28-3.15s-4.57,1.46-5.61,2.24c-1.53,1.14-3.37,2.87-3.51,4.75C258.38,229.78,260.35,228.5,261.53,228.08Z" style="fill:#45D8FF"></path><path d="M261.53,228.08c1.5.11,2.34,2.54,3.49,3.29a1.13,1.13,0,0,0,1.66-.2c1.22-1.57-.29-3.63-1.74-4.8a16.51,16.51,0,0,0,3.05,1.55,1.09,1.09,0,0,0,1.44-.79c.59-2.18-2.14-3.27-4-3.39.95-.6,3.65-2.24,2.28-3.15s-4.57,1.46-5.61,2.24c-1.53,1.14-3.37,2.87-3.51,4.75C258.38,229.78,260.35,228.5,261.53,228.08Z" style="opacity:0.1"></path><path d="M261.08,228.44c1.95-.8,5.59.59,5.93-.12.69-1.46-2.22-2.58-3.8-2.84,1.48-.34,4.31-.86,4.28-2.28,0-1.73-4.3-.4-6.48,1.14-2.76,1.95-2.81,3.93-2.39,4.35C259.21,229.26,260.76,228.57,261.08,228.44Z" style="fill:#45D8FF"></path><path d="M250.68,248.7a89.73,89.73,0,0,1-2.81,13,.33.33,0,0,1-.64-.12c.6-4,1.68-7.93,2.28-11.93a60.37,60.37,0,0,0,.69-12.24c-.38-6.73-2.21-13.9-6.61-19.17-.09-.13.11-.3.21-.19,8.8,10.27,7.4,22.85,7.4,24,1.24-4.25,2.53-9.12,7.24-13.45.2-.19.36-.1.33.22-.85,7.88-3,12-7.61,16.21Q251,246.86,250.68,248.7Z" style="fill:#263238"></path><path d="M243.51,219.39c-1.58-.71-3.76,1.31-5.33,1.45a1.3,1.3,0,0,1-1.59-1.11c-.39-2.26,2.27-3.53,4.38-3.94-1.33-.08-2.64.28-3.94-.07a1.26,1.26,0,0,1-1-1.58c.58-2.55,3.95-2.18,5.94-1.27-.63-1.12-2.49-4.26-.61-4.44s3.87,4,4.5,5.32c.94,2,1.87,4.76,1,6.74C245.79,222.82,244.48,220.45,243.51,219.39Z" style="fill:#45D8FF"></path><path d="M243.51,219.39c-1.58-.71-3.76,1.31-5.33,1.45a1.3,1.3,0,0,1-1.59-1.11c-.39-2.26,2.27-3.53,4.38-3.94-1.33-.08-2.64.28-3.94-.07a1.26,1.26,0,0,1-1-1.58c.58-2.55,3.95-2.18,5.94-1.27-.63-1.12-2.49-4.26-.61-4.44s3.87,4,4.5,5.32c.94,2,1.87,4.76,1,6.74C245.79,222.82,244.48,220.45,243.51,219.39Z" style="opacity:0.1"></path><path d="M243.78,220c-1.55-1.87-6-2.42-6-3.34.08-1.85,3.65-1.42,5.4-.82-1.32-1.15-3.91-3.22-3.11-4.64,1-1.74,4.59,1.91,6,4.67,1.75,3.48.73,5.53.07,5.72C245.24,221.84,244,220.3,243.78,220Z" style="fill:#45D8FF"></path><path d="M256.47,251.07l3.88,29.66H236.73c.48-2.63,4.88-29.69,4.88-29.69Z" style="fill:#45D8FF"></path><path d="M440.48,307.27c-3.42-3.35-7.84-7.4-13.07-6-4.92,1.36-6.8,6.73-7.68,11.21-1.14,5.76-2,11.58-2.94,17.39s-1.79,11.73-2.63,17.61c-.48,3.31-1,6.63-1.41,9.94-.23,1.66-.47,3.32-.69,5s-.5,3.25-.59,4.89c0,.52.79.6.9.1.64-2.76.9-5.64,1.31-8.45s.81-5.65,1.23-8.47c.82-5.61,1.67-11.21,2.51-16.81s1.72-11.21,2.61-16.81c.76-4.75,1.12-10.65,5.33-13.78a8.13,8.13,0,0,1,7.87-.74c2.77,1.06,5,3,7.15,5C440.45,307.43,440.55,307.33,440.48,307.27Z" style="fill:#263238"></path><path d="M435.8,303.84s-7-2.51-10.44,2.59.67,18.08,32.51,25.4a90,90,0,0,0-7.66-28.77C443.38,288.17,431.22,293.81,435.8,303.84Z" style="fill:#45D8FF"></path><path d="M456,329.71a24.8,24.8,0,0,0-1.61-2.59c-.53-.82-1.07-1.63-1.61-2.44-.41-.62-.83-1.22-1.25-1.83,0-.14,0-.3.06-.45s.08-.55.11-.83c.08-.6.17-1.19.26-1.79s.18-1.18.3-1.77a9,9,0,0,1,.41-1.88c0-.09-.12-.14-.14,0a7.88,7.88,0,0,1-.28,1.06c-.08.26-.15.53-.21.8-.16.6-.31,1.21-.44,1.82s-.23,1.12-.33,1.69c-.05.27-.09.54-.12.82-.57-.81-1.15-1.62-1.75-2.4-1.69-2.23-3.47-4.37-5.32-6.46,0,0,0,0,0-.06.17-3.34.09-6.65.83-9.95,0-.08-.11-.13-.13,0a33.94,33.94,0,0,0-1.19,9.51c-.67-.74-1.34-1.48-2-2.21q-2.33-2.49-4.74-4.91c-.06-.06-.17,0-.1.1,2.68,2.89,5.23,5.89,7.71,9a53.73,53.73,0,0,0-5.82.21c-2.16.16-4.3.44-6.45.73a.07.07,0,0,0,0,.14,60.16,60.16,0,0,1,6.44-.57c2.07-.09,4.14,0,6.21,0q2,2.49,4,5h-.3c-.49,0-1,0-1.46,0-1,0-1.94.08-2.9.17a43.22,43.22,0,0,0-5.88.88.07.07,0,0,0,0,.14c1.95-.22,3.91-.41,5.88-.48.94,0,1.88,0,2.82,0h1.46a1.76,1.76,0,0,0,.8-.07c.86,1.11,1.72,2.22,2.57,3.34.67.89,1.34,1.79,2,2.69s1.28,1.93,2,2.8C456,329.85,456.07,329.78,456,329.71Z" style="fill:#263238"></path><path d="M438.84,311.07a21.4,21.4,0,0,0-3.4-.16c-1.14,0-2.27,0-3.41.07a.07.07,0,1,0,0,.14c1.15-.08,2.3-.1,3.46-.08s2.23.12,3.34.09C438.88,311.13,438.88,311.08,438.84,311.07Z" style="fill:#263238"></path><path d="M448.84,313.64c.13-1.09.26-2.18.49-3.25a.07.07,0,1,0-.13,0c-.17,1.07-.38,2.13-.53,3.2-.08.54-.16,1.08-.22,1.61a7.1,7.1,0,0,0-.13,1.52.09.09,0,0,0,.18,0,9.69,9.69,0,0,0,.17-1.52C448.72,314.67,448.77,314.16,448.84,313.64Z" style="fill:#263238"></path><path d="M446.74,301.59c-.28,1.06-.55,2.13-.75,3.21-.1.55-.18,1.1-.25,1.65a6.13,6.13,0,0,0-.11,1.6,0,0,0,0,0,.08,0,8,8,0,0,0,.25-1.53c.07-.53.16-1.06.25-1.59.19-1.11.39-2.21.67-3.3C446.9,301.55,446.77,301.5,446.74,301.59Z" style="fill:#263238"></path><path d="M405.29,366.16c-.17-2-.37-4-.58-6-.42-4-.9-7.92-1.43-11.88s-1-7.89-1.67-11.81a29.73,29.73,0,0,0-1.22-5.36,5.12,5.12,0,0,0-3-3.36c-3.75-1.29-6.27,2.59-7.78,5.34a.07.07,0,1,0,.12.07c.91-1.3,3.41-4.95,6.25-4.78,1.91.11,3.44,1.46,4.36,6.23,2.29,11.88,4.35,36,4.59,37.56.13.83.72.8.72-.1C405.69,370.09,405.46,368.12,405.29,366.16Z" style="fill:#263238"></path><path d="M390.65,331.6s3.27-11.55-4-5.78c-12,9.63-12.47,30.55-12.47,30.55s21.41-12.43,24.08-20.64C402.25,323.51,390.65,331.6,390.65,331.6Z" style="fill:#45D8FF"></path><path d="M394.7,337.28c-1.68.34-3.39.56-5.08.81l-2.41.33c-.54.08-1.09.13-1.64.2,1.59-2.2,3.2-4.39,4.73-6.63a.09.09,0,0,0-.14-.1,50.32,50.32,0,0,0-3.58,4.12c-.31-.89-.63-1.78-.95-2.68s-.75-2.06-1-3.13a.07.07,0,1,0-.13,0c.29,1.06.5,2.14.78,3.2s.58,2,.95,3c-.79,1-1.54,2.06-2.27,3.12-.37-1.05-.83-2.06-1.15-3.12,0-.09-.17-.05-.14,0,.39,1.18.59,2.4,1,3.58-.49.71-1,1.43-1.45,2.16-.86,1.33-1.68,2.69-2.48,4.06a.32.32,0,0,0-.18.33c-1.36,2.34-2.64,4.71-3.91,7.11-.05.08.08.15.12.07,1.27-2.37,2.69-4.67,4.16-6.94h0a3.78,3.78,0,0,1,.7-.13l.74-.16c.56-.12,1.11-.27,1.66-.4,1.08-.27,2.16-.53,3.26-.72.09,0,0-.16,0-.14-1.3.25-2.6.4-3.91.55-.62.07-1.23.15-1.85.25h-.09q1.16-1.75,2.34-3.48c.78-1.13,1.58-2.24,2.38-3.35.75-.11,1.48-.3,2.22-.44l2.49-.49c1.65-.33,3.3-.7,5-1C394.83,337.4,394.79,337.26,394.7,337.28Z" style="fill:#263238"></path><path d="M381.83,338.42c-.1-.31-.19-.62-.29-.92a18.35,18.35,0,0,1-.49-1.94c0-.09-.16-.05-.14,0,.14.65.29,1.3.44,2a13.14,13.14,0,0,0,.56,1.92.13.13,0,0,0,.25-.08C382.07,339.07,381.94,338.75,381.83,338.42Z" style="fill:#263238"></path><path d="M396.89,334.6c-1,.15-2,.22-2.94.3s-2,.23-2.95.37c-.05,0-.05.09,0,.09,1-.07,2-.14,2.95-.27s2-.28,2.94-.34C397,334.74,397,334.59,396.89,334.6Z" style="fill:#263238"></path><path d="M421.05,351.52c-.38-8.51-.92-17-1.78-25.48-.42-4.22-.9-8.44-1.49-12.64a90.78,90.78,0,0,0-2.44-12.24,23.6,23.6,0,0,0-4.07-8.62,9.24,9.24,0,0,0-8.23-3.6c-3.73.46-6.73,2.81-9.32,5.36-2.91,2.86-5.58,6-8.27,9l-2,2.34c-.06.07,0,.17.1.1,2.64-3,5.38-6,8.24-8.78,2.65-2.6,5.38-5.44,9-6.52a9.42,9.42,0,0,1,5.26-.12,8.41,8.41,0,0,1,3.59,2.27,19,19,0,0,1,4.05,7.87c2.28,7.83,3.1,16,3.95,24.11s1.45,16.43,1.86,24.68.74,16.58,1.54,24.84c.1,1,.23,2,.36,3.05.09.68,1.15.68,1.09,0C421.83,368.62,421.43,360.07,421.05,351.52Z" style="fill:#263238"></path><path d="M393.25,295.22s4.86-9-.88-11.88-25,18.57-30.58,49.94c0,0,31-13.73,41.58-27.42S402,289.16,393.25,295.22Z" style="fill:#45D8FF"></path><path d="M397.82,302.54c-3.49,0-7-.27-10.46-.24l2-2.25a31.49,31.49,0,0,0,2.73-3.17c.05-.07-.06-.17-.13-.12a27.52,27.52,0,0,0-2.64,2.65c-.87.93-1.74,1.86-2.6,2.8-1.34,1.44-2.64,2.91-3.95,4.38v-2.26c0-1.18,0-2.37,0-3.55,0-2.4,0-4.81.18-7.2,0-.09-.14-.09-.14,0-.17,2.41-.42,4.8-.54,7.21-.06,1.19-.08,2.37-.1,3.55,0,.61,0,1.23,0,1.84,0,.33,0,.68,0,1l-.61.69c-2.79,3.18-5.43,6.47-8,9.82a5.29,5.29,0,0,0-.05-.56c0-.37-.08-.73-.12-1.1-.09-.8-.2-1.6-.32-2.4s-.23-1.49-.35-2.24a24.66,24.66,0,0,1-.41-2.53.07.07,0,1,0-.14,0,24.26,24.26,0,0,1,.29,2.55l.21,2.3c.07.77.14,1.54.22,2.31,0,.37.07.74.11,1.11,0,.18,0,.37.07.55a1,1,0,0,0,.15.44l-1.33,1.73c-1.76,2.33-3.49,4.69-5.22,7-.05.07,0,.17.11.1,1.63-2.13,3.32-4.23,5-6.31,1.28.06,2.58,0,3.86-.06s2.69,0,4,0c.09,0,.09-.15,0-.14-1.35,0-2.7,0-4,0s-2.48,0-3.71,0c1.5-1.83,3-3.64,4.54-5.45l1.67-2a7.29,7.29,0,0,0,1.55.06h1.84c1.15,0,2.29,0,3.44,0,2.37,0,4.74-.12,7.11-.13a.07.07,0,0,0,0-.14c-2.38,0-4.75-.13-7.12-.19-1.15,0-2.3-.07-3.44-.08l-1.84,0c-.35,0-.71,0-1.06,0,1.3-1.54,2.6-3.09,3.91-4.63a.16.16,0,0,0,.07-.09q1.9-2.25,3.83-4.49c.18-.2.36-.4.53-.61,3.62.12,7.23-.12,10.85-.05A.07.07,0,0,0,397.82,302.54Z" style="fill:#263238"></path><path d="M396,308.7h-.84a.07.07,0,0,0,0,.13H396C396.13,308.85,396.12,308.7,396,308.7Z" style="fill:#263238"></path><path d="M394.15,308.71c-1.12,0-2.23,0-3.35-.07l-1.68-.05a6.26,6.26,0,0,0-1.56,0c-.05,0,0,.09,0,.1a5.81,5.81,0,0,0,1.56.11l1.67,0h3.36C394.25,308.86,394.24,308.72,394.15,308.71Z" style="fill:#263238"></path><path d="M384.39,319.19a46.4,46.4,0,0,0-6.86-.62,0,0,0,0,0,0,.05c2.28.22,4.56.34,6.83.71C384.45,319.35,384.48,319.2,384.39,319.19Z" style="fill:#263238"></path><path d="M375.06,309.2c0-.2,0-.4-.07-.59-.06-.45-.13-.9-.2-1.35-.13-.85-.28-1.7-.44-2.55,0-.08-.15-.06-.14,0,.1.88.2,1.76.28,2.64,0,.43.07.86.11,1.3a3.89,3.89,0,0,0,.17,1.23.17.17,0,0,0,.31,0A1.78,1.78,0,0,0,375.06,309.2Z" style="fill:#263238"></path><path d="M420.74,283.67c-1.11-2.07-2.52-4.8-5.29-4.63-2.29.15-3.33,2.48-3.82,4.42-1.51,6-1.61,12.27-1.91,18.39-.62,12.94-1.18,25.89-1.26,38.85q0,5.39,0,10.77c0,3.66,0,7.35.26,11a.27.27,0,0,0,.54,0c0-3.13-.09-6.27-.11-9.4s0-6.12.06-9.17q.15-9.28.5-18.57c.23-6.15.5-12.3.76-18.45q.19-4.62.4-9.22c.13-3,.26-6,.6-8.92.19-1.66.44-3.32.78-5a6.89,6.89,0,0,1,1.43-3.32,3.12,3.12,0,0,1,4.05-.29,8.54,8.54,0,0,1,2.87,3.58C420.66,283.83,420.79,283.75,420.74,283.67Z" style="fill:#263238"></path><path d="M420,282.68s-2.28-8.05,2.76-4c8.39,6.7,8.69,21.28,8.69,21.28s-14.91-8.67-16.77-14.38C411.91,277.05,420,282.68,420,282.68Z" style="fill:#45D8FF"></path><path d="M428.3,294c-.13-.22-.28-.44-.42-.66a4,4,0,0,0,0-.69v-1c0-.68,0-1.36.08-2,0-.1-.14-.09-.15,0,0,.67-.06,1.33-.08,2l0,1c0,.13,0,.28,0,.43-.59-.91-1.19-1.81-1.81-2.69-.18-.26-.37-.51-.55-.76a15.41,15.41,0,0,1-.05-2.63c0-.94,0-1.87.06-2.81a.07.07,0,1,0-.14,0c0,1-.08,1.94-.13,2.91a20.75,20.75,0,0,0-.06,2.09c-1.44-2-3-3.85-4.51-5.73-.05-.06-.16,0-.11.09,1,1.21,1.87,2.46,2.77,3.71-1.75-.41-3.54-.64-5.32-.9-.09,0-.13.13,0,.14,1.88.29,3.74.76,5.6,1.17h0c.71,1,1.42,2,2.12,3,.29.41.56.83.85,1.24h-.08l-.58-.08c-.42-.05-.83-.08-1.24-.11-.86-.07-1.73-.11-2.59-.16-.09,0-.09.14,0,.14.84,0,1.69.09,2.53.18l1.33.16.59.07.17,0c.48.71,1,1.41,1.43,2.12.84,1.24,1.6,2.58,2.5,3.78a.07.07,0,1,0,.11-.07A37.38,37.38,0,0,0,428.3,294Z" style="fill:#263238"></path><path d="M424.59,284.87c0-.32,0-.63,0-.94a13.07,13.07,0,0,1,.08-2c0-.1-.15-.12-.15,0,0,.65-.07,1.3-.1,1.95,0,.33,0,.65,0,1,0,.15,0,.3,0,.45a1.47,1.47,0,0,0,0,.47.06.06,0,0,0,.12,0,1,1,0,0,0,0-.43Z" style="fill:#263238"></path><path d="M422.75,288.2c-.56-.09-1.13-.12-1.69-.17s-1.23-.11-1.84-.19a.08.08,0,0,0,0,.15c1.18.07,2.35.28,3.53.32C422.8,288.32,422.81,288.21,422.75,288.2Z" style="fill:#263238"></path><path d="M427.43,288.25c.05.06,0,.24,0,.31v.26c0,.19,0,.38,0,.56V290a1.15,1.15,0,0,0,0,.49,0,0,0,0,0,0,0,.5.5,0,0,0,0-.24v-.26c0-.18,0-.37,0-.56v-.82c0-.08,0-.25,0-.31S427.34,288.12,427.43,288.25Z" style="fill:#263238"></path><path d="M421.09,326.63c-3.14-2.35-5.95-5.74-10.17-5.9-3.49-.14-5.93,2.48-7.32,5.4a30.58,30.58,0,0,0-1.71,4.81q-.94,3.31-1.78,6.64c-1.09,4.38-2,8.79-2.79,13.24-.42,2.48-.82,5-1.13,7.46a63,63,0,0,0-.74,7.63.4.4,0,0,0,.78.09c.43-2.09.61-4.24.91-6.35s.63-4.24,1-6.35q1.08-6.35,2.5-12.62c.9-3.94,1.78-7.95,3.06-11.79.91-2.76,2.38-6,5.35-7,4.53-1.51,8.64,2.32,11.95,4.81C421.06,326.79,421.16,326.69,421.09,326.63Z" style="fill:#263238"></path><path d="M417.84,324.38s-2.89-8.26,1.3-9.88c6.26-2.42,22.67,16.06,19.46,44.37,0,0-12.68-7-22-14.84s-11.75-18.12-7.63-20.77S417.84,324.38,417.84,324.38Z" style="fill:#45D8FF"></path><path d="M436.7,352.8a21.18,21.18,0,0,0-1.52-2.86c-.54-1-1.08-1.93-1.64-2.89-1.09-1.86-2.17-3.73-3.29-5.57-.18-.3-.36-.6-.55-.9,0-.11.05-.22.07-.33.07-.27.13-.55.19-.82.14-.61.25-1.23.36-1.85.23-1.21.44-2.44.77-3.63,0-.09-.13-.12-.15,0-.25,1.21-.64,2.41-1,3.59-.18.58-.37,1.17-.52,1.76-.06.2-.11.4-.16.6-1.35-2.21-2.72-4.41-4.2-6.53a2.71,2.71,0,0,0,.15-.91c0-.41.09-.83.14-1.24.11-.93.22-1.86.36-2.79.27-1.82.54-3.63,1-5.42a.07.07,0,0,0-.14,0c-.45,1.78-.94,3.57-1.28,5.37-.17.89-.33,1.78-.44,2.67-.06.45-.11.9-.16,1.35,0,.13,0,.27-.05.4-.45-.64-.91-1.28-1.38-1.9-1.45-1.91-2.95-3.77-4.47-5.62-.05-.07-.17,0-.11.08a100.15,100.15,0,0,1,7.12,10.41c.42.67.82,1.34,1.24,2l-.41,0c-.53-.07-1.07-.1-1.6-.15l-3.2-.28c-2.14-.17-4.28-.3-6.41-.53-.09,0-.11.14,0,.15,2.16.24,4.3.59,6.46.9,1.05.15,2.11.29,3.17.42a12.16,12.16,0,0,0,2.44.25c.84,1.37,1.69,2.73,2.52,4.09a5.24,5.24,0,0,0-.56,0h-3.06l-4.12,0c-.09,0-.08.14,0,.15,1.4,0,2.79.08,4.18.16l2,.11,1,.08a2.13,2.13,0,0,0,.87,0l2.14,3.48c.65,1.07,1.32,2.14,2,3.19a26.65,26.65,0,0,0,2.15,3.23C436.62,352.94,436.74,352.89,436.7,352.8Z" style="fill:#263238"></path><path d="M430.66,329.92a20.73,20.73,0,0,1-.56,2.69c-.24.92-.5,1.82-.8,2.72a.09.09,0,1,0,.17.06c.28-.89.53-1.8.75-2.7s.36-1.84.58-2.75C430.83,329.85,430.67,329.82,430.66,329.92Z" style="fill:#263238"></path><path d="M421.35,335.45a1.07,1.07,0,0,0-.69-.26l-1.2-.16c-.74-.11-1.48-.19-2.23-.27-1.54-.19-3.09-.34-4.63-.53-.09,0-.12.13,0,.14,1.46.18,2.91.4,4.37.59l2.14.28,1,.11a3.83,3.83,0,0,1,1.17.2C421.35,335.59,421.4,335.5,421.35,335.45Z" style="fill:#263238"></path><path d="M430.64,347.9c-.73-.06-1.46-.09-2.19-.11l-1.11,0-.53,0a3.88,3.88,0,0,1-.69,0c-.1,0-.11.16,0,.14a3.53,3.53,0,0,1,.65,0l.57,0,1.11.06c.73.05,1.46.09,2.19.09A.08.08,0,0,0,430.64,347.9Z" style="fill:#263238"></path><path d="M435.11,344.73l.24-1.25.45-2.44a.07.07,0,0,0-.14,0l-.54,2.39c-.09.39-.18.79-.26,1.19l-.12.55a1.49,1.49,0,0,0-.06.59c0,.06.11.12.16,0A3.07,3.07,0,0,0,435.11,344.73Z" style="fill:#263238"></path><polygon points="392.19 362.74 393.07 372.78 396.07 406.67 422.61 406.67 426.36 372.78 427.47 362.74 392.19 362.74" style="fill:#37474f"></polygon><polygon points="392.19 362.74 393.07 372.78 426.36 372.78 427.47 362.74 392.19 362.74" style="fill:#263238"></polygon><rect x="389.56" y="360.01" width="40.53" height="8.14" transform="translate(819.66 728.16) rotate(180)" style="fill:#37474f"></rect></g><g id="freepik--Food--inject-200"><rect x="202.48" y="279.16" width="30.13" height="1.57" style="fill:#a6a6a6"></rect><path d="M242.52,267.12s-3.48,12-9.91,12H202.48c-6.44,0-9.91-12-9.91-12Z" style="fill:#c7c7c7"></path><rect x="280.91" y="232.26" width="35.74" height="48.47" style="fill:#45D8FF"></rect><rect x="280.91" y="232.26" width="35.74" height="48.47" style="fill:#fff;opacity:0.6000000000000001"></rect><rect x="316.64" y="232.26" width="9.7" height="48.47" transform="translate(642.98 512.99) rotate(180)" style="fill:#45D8FF"></rect><rect x="316.64" y="232.26" width="9.7" height="48.47" transform="translate(642.98 512.99) rotate(180)" style="fill:#fff;opacity:0.30000000000000004"></rect><polygon points="275.9 224.72 311.64 224.72 316.64 232.26 280.9 232.26 275.9 224.72" style="fill:#45D8FF"></polygon><polygon points="275.9 224.72 311.64 224.72 316.64 232.26 280.9 232.26 275.9 224.72" style="fill:#fff;opacity:0.30000000000000004"></polygon><polygon points="331.34 224.72 321.64 224.72 316.64 232.26 326.34 232.26 331.34 224.72" style="fill:#45D8FF"></polygon><path d="M280.91,248.93s7.12,17.63,35.73,17.63v14.17H280.91Z" style="fill:#45D8FF"></path><path d="M316.64,264.83v-2.92s-18.94,1.65-32-13C284.62,248.93,293.13,264.83,316.64,264.83Z" style="fill:#45D8FF"></path><path d="M313.18,247c0,3.89-4.36,7-9.73,7s-9.74-3.15-9.74-7,4.36-7,9.74-7S313.18,243.1,313.18,247Z" style="fill:#45D8FF"></path></g></svg>